<svg width="332" height="236" viewBox="0 0 332 236" fill="none" xmlns="http://www.w3.org/2000/svg">
<path d="M157 46C141 34.5 115.69 31.0536 99.4683 33.6482C83.2468 36.2428 68.0987 43.4898 55.8507 54.5152C43.6026 65.5407 34.7775 79.8739 30.4395 95.7866C26.1015 111.699 26.4358 128.512 31.4021 144.197C36.3684 159.883 45.7547 173.772 58.4291 184.189C71.1035 194.606 86.5249 201.106 102.834 202.907C119.143 204.707 135.643 201.73 150.345 194.335C165 187.5 177 175.5 187.5 162L139 117C131.5 111 119 108 110 115C110 115 108.5 115.5 99 125.5C108.5 137 139 161 138 164C128.935 168.56 116.595 171.465 106.539 170.355C96.4825 169.245 86.9734 165.236 79.1582 158.813C71.3429 152.39 65.5552 143.826 62.4929 134.154C59.4306 124.482 59.2245 114.115 61.8994 104.303C64.5742 94.491 70.0159 85.6529 77.5683 78.8545C85.1206 72.056 94.4611 67.5874 104.464 65.9875C114.5 65 125.059 66.1498 133.5 70L157 46Z" fill="white"/>
<path d="M139.503 73.8023C150.999 58.9994 162.499 49.4994 176.999 41.9994C192.383 34.7438 210.677 31.4853 227.499 33.9994C243.499 36.3906 258.452 43.0004 271.043 54.4368C283.633 65.8732 293.884 80.9955 297.999 97.4994C302.114 114.003 300.248 131.991 294.5 148C288.752 164.008 278.5 177.5 264.374 187.227C250.701 197.345 234.335 203.18 217.345 203.997C200.356 204.813 184.079 199.26 169.499 190.499L193.502 165.997C202.503 169.496 205.499 170.999 215.999 169.999C226.471 169.496 237.072 167.235 245.499 160.999C253.927 154.763 260.831 145.366 264.374 135.499C267.917 125.632 268.035 114.672 265.499 104.499C262.963 94.3271 256.259 85.0483 248.499 77.9994C240.739 70.9505 231.368 67.549 220.999 65.9994C210.631 64.4498 197.982 68.528 188.5 73L227.499 111C224.5 113.5 212 134.5 190 121L178 110.5L164.751 97.4012L139.503 73.8023Z" fill="white"/>
</svg>
